<svg width="48" height="48" viewBox="0 0 48 48" fill="none" xmlns="http://www.w3.org/2000/svg">
  <rect width="48" height="48" rx="12" fill="#E6F7FF"/>
  <path d="M24 12C17.373 12 12 17.373 12 24C12 30.627 17.373 36 24 36C30.627 36 36 30.627 36 24C36 17.373 30.627 12 24 12ZM24 33.6C18.697 33.6 14.4 29.303 14.4 24C14.4 18.697 18.697 14.4 24 14.4C29.303 14.4 33.6 18.697 33.6 24C33.6 29.303 29.303 33.6 24 33.6Z" fill="#0094FF"/>
  <path d="M28.8 19.2H19.2C18.537 19.2 18 19.737 18 20.4V27.6C18 28.263 18.537 28.8 19.2 28.8H28.8C29.463 28.8 30 28.263 30 27.6V20.4C30 19.737 29.463 19.2 28.8 19.2ZM27.6 24C27.6 25.989 25.989 27.6 24 27.6C22.011 27.6 20.4 25.989 20.4 24C20.4 22.011 22.011 20.4 24 20.4C25.989 20.4 27.6 22.011 27.6 24Z" fill="#0094FF"/>
</svg> 